<svg xmlns="http://www.w3.org/2000/svg" xmlns:xlink="http://www.w3.org/1999/xlink" width="79" zoomAndPan="magnify" viewBox="0 0 59.25 22.5" height="30" preserveAspectRatio="xMidYMid meet" version="1.0"><defs><g/><clipPath id="dd40cbb852"><path d="M 0.765625 0.71875 L 23 0.71875 L 23 21.527344 L 0.765625 21.527344 Z M 0.765625 0.71875 " clip-rule="nonzero"/></clipPath></defs><g clip-path="url(#dd40cbb852)"><path fill="#ffffff" d="M 22.628906 3.320312 C 22.386719 2.75 22.039062 2.261719 21.648438 1.949219 C 21.296875 1.664062 20.941406 1.546875 20.625 1.597656 C 20.441406 1.273438 20.15625 1.027344 19.8125 0.890625 C 19.40625 0.726562 18.960938 0.730469 18.5625 0.90625 C 18.164062 1.078125 17.851562 1.394531 17.691406 1.800781 C 17.59375 2.046875 17.558594 2.308594 17.582031 2.566406 L 9.378906 7.011719 C 9.28125 7.066406 9.238281 7.183594 9.285156 7.28125 L 9.359375 7.457031 L 2.515625 11.011719 L 2.378906 10.6875 C 2.355469 10.632812 2.316406 10.59375 2.261719 10.574219 C 2.207031 10.554688 2.148438 10.558594 2.101562 10.574219 L 0.921875 11.082031 C 0.816406 11.125 0.765625 11.25 0.808594 11.359375 L 1.785156 13.636719 C 1.808594 13.691406 1.847656 13.730469 1.902344 13.75 C 1.929688 13.757812 1.957031 13.761719 1.984375 13.761719 C 2.011719 13.761719 2.042969 13.757812 2.070312 13.746094 L 3.246094 13.238281 C 3.351562 13.195312 3.402344 13.070312 3.359375 12.960938 L 3.21875 12.640625 L 9.476562 10.488281 C 9.625 10.789062 9.84375 11.035156 10.109375 11.214844 L 10.109375 13.90625 L 8.640625 13.90625 C 8.523438 13.90625 8.429688 14 8.429688 14.117188 L 8.429688 15.660156 L 3.023438 21.078125 C 2.960938 21.140625 2.941406 21.230469 2.976562 21.308594 C 3.007812 21.390625 3.089844 21.441406 3.175781 21.441406 L 5.175781 21.441406 C 5.234375 21.441406 5.285156 21.417969 5.324219 21.378906 L 10.246094 16.453125 L 10.246094 21.230469 C 10.246094 21.347656 10.339844 21.441406 10.457031 21.441406 L 11.871094 21.441406 C 11.988281 21.441406 12.082031 21.347656 12.082031 21.230469 L 12.082031 16.449219 L 17.007812 21.375 C 17.046875 21.414062 17.101562 21.4375 17.152344 21.4375 L 19.15625 21.4375 C 19.242188 21.4375 19.316406 21.382812 19.351562 21.304688 C 19.382812 21.226562 19.367188 21.136719 19.308594 21.074219 L 13.898438 15.664062 L 13.898438 14.121094 C 13.898438 14.003906 13.804688 13.910156 13.6875 13.910156 L 12.222656 13.910156 L 12.222656 11.21875 C 12.53125 11.011719 12.765625 10.71875 12.910156 10.367188 C 12.996094 10.15625 13.035156 9.929688 13.042969 9.710938 L 19.722656 7.539062 C 20.03125 7.898438 20.488281 8.105469 20.960938 8.105469 C 21.175781 8.105469 21.390625 8.066406 21.597656 7.96875 C 21.996094 7.800781 22.3125 7.484375 22.472656 7.074219 C 22.617188 6.710938 22.625 6.3125 22.503906 5.945312 C 23.039062 5.535156 23.113281 4.441406 22.628906 3.320312 Z M 2.089844 13.273438 L 1.28125 11.386719 L 2.070312 11.046875 L 2.878906 12.933594 Z M 9.339844 10.089844 L 3.046875 12.25 L 2.683594 11.398438 L 9.527344 7.839844 L 9.773438 8.414062 C 9.371094 8.863281 9.199219 9.484375 9.339844 10.089844 Z M 5.085938 21.015625 L 3.679688 21.015625 L 8.671875 16.023438 L 10.074219 16.023438 Z M 11.660156 21.015625 L 10.667969 21.015625 L 10.667969 16.027344 L 10.671875 16.023438 L 11.65625 16.023438 L 11.65625 21.015625 Z M 18.648438 21.015625 L 17.25 21.015625 L 12.253906 16.023438 L 13.652344 16.023438 Z M 13.480469 14.332031 L 13.480469 15.597656 L 8.855469 15.597656 L 8.855469 14.332031 Z M 10.535156 13.910156 L 10.535156 11.433594 C 10.734375 11.507812 10.949219 11.546875 11.167969 11.546875 C 11.378906 11.546875 11.589844 11.511719 11.800781 11.433594 L 11.800781 13.910156 Z M 12.515625 10.207031 C 12.375 10.570312 12.097656 10.851562 11.738281 11.003906 C 11 11.324219 10.144531 10.980469 9.828125 10.246094 C 9.507812 9.507812 9.851562 8.652344 10.585938 8.332031 C 10.769531 8.253906 10.96875 8.214844 11.160156 8.214844 C 11.34375 8.214844 11.527344 8.253906 11.703125 8.320312 C 12.0625 8.464844 12.347656 8.742188 12.5 9.097656 C 12.65625 9.453125 12.660156 9.847656 12.515625 10.207031 Z M 13 9.277344 C 12.972656 9.15625 12.9375 9.039062 12.886719 8.929688 C 12.691406 8.46875 12.324219 8.109375 11.859375 7.925781 C 11.394531 7.738281 10.882812 7.746094 10.421875 7.945312 C 10.308594 7.992188 10.203125 8.050781 10.105469 8.117188 L 9.746094 7.289062 L 17.683594 2.992188 C 17.691406 3.011719 17.695312 3.03125 17.703125 3.050781 L 19.449219 7.121094 C 19.460938 7.136719 19.46875 7.15625 19.476562 7.171875 Z M 21.429688 7.585938 C 20.816406 7.851562 20.105469 7.5625 19.84375 6.949219 L 18.097656 2.878906 C 17.972656 2.585938 17.96875 2.253906 18.085938 1.957031 C 18.207031 1.660156 18.433594 1.425781 18.730469 1.296875 C 18.882812 1.230469 19.042969 1.199219 19.203125 1.199219 C 19.355469 1.199219 19.507812 1.222656 19.652344 1.28125 C 19.953125 1.402344 20.183594 1.632812 20.316406 1.925781 L 22.058594 5.996094 C 22.324219 6.609375 22.042969 7.320312 21.429688 7.585938 Z M 22.324219 5.535156 L 20.8125 2.011719 C 20.980469 2.027344 21.179688 2.117188 21.378906 2.28125 C 21.714844 2.554688 22.019531 2.984375 22.238281 3.488281 C 22.625 4.386719 22.589844 5.195312 22.324219 5.535156 Z M 22.324219 5.535156 " fill-opacity="1" fill-rule="nonzero"/></g><g fill="#ffffff" fill-opacity="1"><g transform="translate(26.195627, 16.427591)"><g><path d="M 2.3125 -5.359375 C 2.875 -5.359375 3.335938 -5.179688 3.703125 -4.828125 L 3.34375 -4.375 C 3.082031 -4.65625 2.738281 -4.796875 2.3125 -4.796875 C 1.90625 -4.796875 1.597656 -4.664062 1.390625 -4.40625 C 1.253906 -4.226562 1.171875 -4.023438 1.140625 -3.796875 C 1.117188 -3.566406 1.109375 -3.1875 1.109375 -2.65625 C 1.109375 -2.125 1.117188 -1.742188 1.140625 -1.515625 C 1.171875 -1.285156 1.253906 -1.085938 1.390625 -0.921875 C 1.597656 -0.648438 1.90625 -0.515625 2.3125 -0.515625 C 2.769531 -0.515625 3.132812 -0.671875 3.40625 -0.984375 L 3.8125 -0.578125 C 3.644531 -0.390625 3.425781 -0.238281 3.15625 -0.125 C 2.894531 -0.0078125 2.613281 0.046875 2.3125 0.046875 C 1.695312 0.046875 1.226562 -0.164062 0.90625 -0.59375 C 0.726562 -0.820312 0.617188 -1.070312 0.578125 -1.34375 C 0.535156 -1.625 0.515625 -2.0625 0.515625 -2.65625 C 0.515625 -3.0625 0.519531 -3.351562 0.53125 -3.53125 C 0.539062 -3.71875 0.570312 -3.921875 0.625 -4.140625 C 0.6875 -4.367188 0.785156 -4.5625 0.921875 -4.71875 C 1.242188 -5.144531 1.707031 -5.359375 2.3125 -5.359375 Z M 2.3125 -5.359375 "/></g></g></g><g fill="#ffffff" fill-opacity="1"><g transform="translate(30.845733, 16.427591)"><g><path d="M 1.109375 -2.65625 C 1.109375 -2.320312 1.109375 -2.078125 1.109375 -1.921875 C 1.117188 -1.773438 1.140625 -1.613281 1.171875 -1.4375 C 1.203125 -1.269531 1.25 -1.128906 1.3125 -1.015625 C 1.519531 -0.679688 1.859375 -0.515625 2.328125 -0.515625 C 2.796875 -0.515625 3.132812 -0.679688 3.34375 -1.015625 C 3.4375 -1.171875 3.492188 -1.359375 3.515625 -1.578125 C 3.535156 -1.804688 3.546875 -2.164062 3.546875 -2.65625 C 3.546875 -2.988281 3.539062 -3.226562 3.53125 -3.375 C 3.53125 -3.53125 3.515625 -3.691406 3.484375 -3.859375 C 3.453125 -4.035156 3.40625 -4.175781 3.34375 -4.28125 C 3.132812 -4.625 2.796875 -4.796875 2.328125 -4.796875 C 1.859375 -4.796875 1.519531 -4.625 1.3125 -4.28125 C 1.21875 -4.132812 1.160156 -3.945312 1.140625 -3.71875 C 1.117188 -3.488281 1.109375 -3.132812 1.109375 -2.65625 Z M 0.515625 -2.65625 C 0.515625 -3.039062 0.519531 -3.316406 0.53125 -3.484375 C 0.539062 -3.660156 0.566406 -3.847656 0.609375 -4.046875 C 0.648438 -4.242188 0.71875 -4.414062 0.8125 -4.5625 C 0.957031 -4.8125 1.160156 -5.003906 1.421875 -5.140625 C 1.691406 -5.285156 1.992188 -5.359375 2.328125 -5.359375 C 2.660156 -5.359375 2.957031 -5.285156 3.21875 -5.140625 C 3.488281 -5.003906 3.695312 -4.8125 3.84375 -4.5625 C 3.976562 -4.351562 4.0625 -4.117188 4.09375 -3.859375 C 4.125 -3.609375 4.140625 -3.207031 4.140625 -2.65625 C 4.140625 -2.269531 4.132812 -1.988281 4.125 -1.8125 C 4.113281 -1.644531 4.085938 -1.460938 4.046875 -1.265625 C 4.003906 -1.066406 3.9375 -0.890625 3.84375 -0.734375 C 3.695312 -0.492188 3.488281 -0.300781 3.21875 -0.15625 C 2.957031 -0.0195312 2.660156 0.046875 2.328125 0.046875 C 1.992188 0.046875 1.691406 -0.0195312 1.421875 -0.15625 C 1.160156 -0.300781 0.957031 -0.492188 0.8125 -0.734375 C 0.675781 -0.953125 0.59375 -1.1875 0.5625 -1.4375 C 0.53125 -1.695312 0.515625 -2.101562 0.515625 -2.65625 Z M 0.515625 -2.65625 "/></g></g></g><g fill="#ffffff" fill-opacity="1"><g transform="translate(35.893961, 16.427591)"><g><path d="M 1.96875 -5.359375 C 2.53125 -5.359375 3.007812 -5.207031 3.40625 -4.90625 L 3.09375 -4.4375 C 2.789062 -4.675781 2.414062 -4.796875 1.96875 -4.796875 C 1.632812 -4.796875 1.382812 -4.71875 1.21875 -4.5625 C 1.0625 -4.40625 0.984375 -4.222656 0.984375 -4.015625 C 0.984375 -3.765625 1.085938 -3.550781 1.296875 -3.375 C 1.421875 -3.269531 1.675781 -3.160156 2.0625 -3.046875 C 2.5625 -2.898438 2.921875 -2.734375 3.140625 -2.546875 C 3.492188 -2.242188 3.671875 -1.875 3.671875 -1.4375 C 3.671875 -1.039062 3.519531 -0.691406 3.21875 -0.390625 C 2.914062 -0.0976562 2.5 0.046875 1.96875 0.046875 C 1.363281 0.046875 0.832031 -0.132812 0.375 -0.5 L 0.71875 -0.953125 C 1.070312 -0.660156 1.488281 -0.515625 1.96875 -0.515625 C 2.34375 -0.515625 2.617188 -0.601562 2.796875 -0.78125 C 2.984375 -0.96875 3.078125 -1.1875 3.078125 -1.4375 C 3.078125 -1.71875 2.957031 -1.953125 2.71875 -2.140625 C 2.582031 -2.253906 2.28125 -2.382812 1.8125 -2.53125 C 1.40625 -2.65625 1.097656 -2.804688 0.890625 -2.984375 C 0.742188 -3.097656 0.625 -3.242188 0.53125 -3.421875 C 0.4375 -3.609375 0.390625 -3.800781 0.390625 -4 C 0.390625 -4.382812 0.53125 -4.707031 0.8125 -4.96875 C 1.101562 -5.226562 1.488281 -5.359375 1.96875 -5.359375 Z M 1.96875 -5.359375 "/></g></g></g><g fill="#ffffff" fill-opacity="1"><g transform="translate(40.352968, 16.427591)"><g><path d="M 0.59375 -5.3125 L 1.109375 -5.3125 L 2.78125 -2.015625 L 4.453125 -5.3125 L 4.984375 -5.3125 L 4.984375 0 L 4.390625 0 L 4.390625 -4 L 3.046875 -1.3125 L 2.53125 -1.3125 L 1.1875 -3.984375 L 1.1875 0 L 0.59375 0 Z M 0.59375 -5.3125 "/></g></g></g><g fill="#ffffff" fill-opacity="1"><g transform="translate(46.324839, 16.427591)"><g><path d="M 1.109375 -2.65625 C 1.109375 -2.320312 1.109375 -2.078125 1.109375 -1.921875 C 1.117188 -1.773438 1.140625 -1.613281 1.171875 -1.4375 C 1.203125 -1.269531 1.25 -1.128906 1.3125 -1.015625 C 1.519531 -0.679688 1.859375 -0.515625 2.328125 -0.515625 C 2.796875 -0.515625 3.132812 -0.679688 3.34375 -1.015625 C 3.4375 -1.171875 3.492188 -1.359375 3.515625 -1.578125 C 3.535156 -1.804688 3.546875 -2.164062 3.546875 -2.65625 C 3.546875 -2.988281 3.539062 -3.226562 3.53125 -3.375 C 3.53125 -3.53125 3.515625 -3.691406 3.484375 -3.859375 C 3.453125 -4.035156 3.40625 -4.175781 3.34375 -4.28125 C 3.132812 -4.625 2.796875 -4.796875 2.328125 -4.796875 C 1.859375 -4.796875 1.519531 -4.625 1.3125 -4.28125 C 1.21875 -4.132812 1.160156 -3.945312 1.140625 -3.71875 C 1.117188 -3.488281 1.109375 -3.132812 1.109375 -2.65625 Z M 0.515625 -2.65625 C 0.515625 -3.039062 0.519531 -3.316406 0.53125 -3.484375 C 0.539062 -3.660156 0.566406 -3.847656 0.609375 -4.046875 C 0.648438 -4.242188 0.71875 -4.414062 0.8125 -4.5625 C 0.957031 -4.8125 1.160156 -5.003906 1.421875 -5.140625 C 1.691406 -5.285156 1.992188 -5.359375 2.328125 -5.359375 C 2.660156 -5.359375 2.957031 -5.285156 3.21875 -5.140625 C 3.488281 -5.003906 3.695312 -4.8125 3.84375 -4.5625 C 3.976562 -4.351562 4.0625 -4.117188 4.09375 -3.859375 C 4.125 -3.609375 4.140625 -3.207031 4.140625 -2.65625 C 4.140625 -2.269531 4.132812 -1.988281 4.125 -1.8125 C 4.113281 -1.644531 4.085938 -1.460938 4.046875 -1.265625 C 4.003906 -1.066406 3.9375 -0.890625 3.84375 -0.734375 C 3.695312 -0.492188 3.488281 -0.300781 3.21875 -0.15625 C 2.957031 -0.0195312 2.660156 0.046875 2.328125 0.046875 C 1.992188 0.046875 1.691406 -0.0195312 1.421875 -0.15625 C 1.160156 -0.300781 0.957031 -0.492188 0.8125 -0.734375 C 0.675781 -0.953125 0.59375 -1.1875 0.5625 -1.4375 C 0.53125 -1.695312 0.515625 -2.101562 0.515625 -2.65625 Z M 0.515625 -2.65625 "/></g></g></g><g fill="#ffffff" fill-opacity="1"><g transform="translate(51.373066, 16.427591)"><g><path d="M 1.96875 -5.359375 C 2.53125 -5.359375 3.007812 -5.207031 3.40625 -4.90625 L 3.09375 -4.4375 C 2.789062 -4.675781 2.414062 -4.796875 1.96875 -4.796875 C 1.632812 -4.796875 1.382812 -4.71875 1.21875 -4.5625 C 1.0625 -4.40625 0.984375 -4.222656 0.984375 -4.015625 C 0.984375 -3.765625 1.085938 -3.550781 1.296875 -3.375 C 1.421875 -3.269531 1.675781 -3.160156 2.0625 -3.046875 C 2.5625 -2.898438 2.921875 -2.734375 3.140625 -2.546875 C 3.492188 -2.242188 3.671875 -1.875 3.671875 -1.4375 C 3.671875 -1.039062 3.519531 -0.691406 3.21875 -0.390625 C 2.914062 -0.0976562 2.5 0.046875 1.96875 0.046875 C 1.363281 0.046875 0.832031 -0.132812 0.375 -0.5 L 0.71875 -0.953125 C 1.070312 -0.660156 1.488281 -0.515625 1.96875 -0.515625 C 2.34375 -0.515625 2.617188 -0.601562 2.796875 -0.78125 C 2.984375 -0.96875 3.078125 -1.1875 3.078125 -1.4375 C 3.078125 -1.71875 2.957031 -1.953125 2.71875 -2.140625 C 2.582031 -2.253906 2.28125 -2.382812 1.8125 -2.53125 C 1.40625 -2.65625 1.097656 -2.804688 0.890625 -2.984375 C 0.742188 -3.097656 0.625 -3.242188 0.53125 -3.421875 C 0.4375 -3.609375 0.390625 -3.800781 0.390625 -4 C 0.390625 -4.382812 0.53125 -4.707031 0.8125 -4.96875 C 1.101562 -5.226562 1.488281 -5.359375 1.96875 -5.359375 Z M 1.96875 -5.359375 "/></g></g></g></svg>